# xmcd CD database file generated by OrangeCD 4.2
#
# Track frame offsets:
#	150
#	3125
#	24400
#	44150
#	89237
#	105950
#	138625
#	165300
#	187725
#	206037
#	217340
#	221790
#	227855
#	251037
#	268750
#	282400
#
# Disc length: 4065 seconds
#
# Revision: 0
# Processed by: cddbd v1.4PL0 Copyright (c) Steve Scherf et al.
# Submitted via: OrangeCD 4.2
#
DISCID=f40fdf10
DTITLE=Various Artist - Sounds of Philadelphia
DYEAR=1900
DGENRE=Blues
TTITLE0=Introduction
TTITLE1=Harold Melvin and The Bluenotes - The Love I Lost
TTITLE2=Harold Melvin and The Bluenotes - If You Don't Know Me By Now
TTITLE3=Harold Melvin and The Bluenotes - Hope That We Can Be Together Soon All N
TTITLE3=ight Long
TTITLE4=Harold Melvin and The Bluenotes - Don't Leave Me This Way
TTITLE5=Harold Melvin and The Bluenotes - Wake Up Everybody
TTITLE6=Billy Paul - Me And Mrs Jones
TTITLE7=The Three Degrees Orchestra - T.S.O.P. (The Sound Of Philadelphia)
TTITLE8=The Three Degrees - My Simple Heart
TTITLE9=The Three Degrees - Medley-Gee Baby I'm Sorry
TTITLE10=The Three Degrees - Medley-Take Good Care Of Yourself
TTITLE11=The Three Degrees - Medley-The Runner
TTITLE12=The Three Degrees - A Woman In Love
TTITLE13=The Three Degrees - Dirty Ol' Man
TTITLE14=The Three Degrees - When Will I See You Again
TTITLE15=Ensemble - Love Train
EXTD=
EXTT0=
EXTT1=
EXTT2=
EXTT3=
EXTT4=
EXTT5=
EXTT6=
EXTT7=
EXTT8=
EXTT9=
EXTT10=
EXTT11=
EXTT12=
EXTT13=
EXTT14=
EXTT15=
PLAYORDER=
